# xmcd
#
# Track frame offsets:
# 150
# 14362
# 35187
# 51494
# 67888
# 85760
# 96346
# 109795
# 125197
#
# Disc length: 1861 seconds
#
#
# Revision: 0
# Processed by: cddbd v1.5.2PL0 Copyright (c) Steve Scherf et al.
# Submitted via: FreeRIP 2.945 
#
DISCID=7e074309
DTITLE=Kareem Salama - Generous Peace
DYEAR=2006
DGENRE=Country
TTITLE0=Get Busy Living
TTITLE1=Baby I'm a Soldier
TTITLE2=A Land Called Paradise
TTITLE3=Valley
TTITLE4=Hold On
TTITLE5=Peace Remain
TTITLE6=Come Now
TTITLE7=Lady Mary
TTITLE8=Chivalry's Not Dead
EXTD=
EXTT0=
EXTT1=
EXTT2=
EXTT3=
EXTT4=
EXTT5=
EXTT6=
EXTT7=
EXTT8=
PLAYORDER=
